<?xml version="1.0" encoding="UTF-8" standalone="no"?>
<svg width="494px" height="249px" viewBox="0 0 494 249" version="1.1" xmlns="http://www.w3.org/2000/svg" xmlns:xlink="http://www.w3.org/1999/xlink" xmlns:sketch="http://www.bohemiancoding.com/sketch/ns">
    <!-- Generator: Sketch 3.3.2 (12043) - http://www.bohemiancoding.com/sketch -->
    <title>Imported Layers</title>
    <desc>Created with Sketch.</desc>
    <defs></defs>
    <g id="Page-1" stroke="none" stroke-width="1" fill="none" fill-rule="evenodd" sketch:type="MSPage">
        <g id="Imported-Layers" sketch:type="MSLayerGroup" fill="#000000">
            <path d="M0.031,176.84 L0.031,129.074 L27.921,79.563 L0.031,81.31 L0.031,57.425 L43.181,52.473 L43.181,91.673 L13.564,141.932 L13.564,154.225 L43.181,157.002 L43.181,183.136 L0.031,176.84" id="Fill-1" sketch:type="MSShapeGroup"></path>
            <path d="M59.428,185.506 C57.08,185.164 55.095,183.62 53.469,180.887 C51.937,178.047 51.175,174.762 51.175,171.027 L51.175,64.832 C51.175,61.237 51.937,58.049 53.469,55.252 C55.095,52.433 57.08,50.878 59.428,50.609 L95.303,46.491 L95.303,75.343 L67.954,77.056 L67.954,104.478 L90.55,104.241 L90.55,132.843 L67.954,131.903 L67.954,159.325 L95.303,161.89 L95.303,190.741 L59.428,185.506" id="Fill-2" sketch:type="MSShapeGroup"></path>
            <path d="M105.063,192.165 L105.063,45.371 L125.653,43.008 L125.653,103.873 L147.806,103.64 L147.806,40.466 L171.707,37.723 L171.707,201.888 L147.806,198.401 L147.806,135.227 L125.653,134.305 L125.653,195.169 L105.063,192.165" id="Fill-3" sketch:type="MSShapeGroup"></path>
            <path d="M197.569,205.662 C193.806,205.113 190.63,203.065 188.035,199.535 C185.593,195.879 184.377,191.701 184.377,186.99 L184.377,36.269 L211.316,33.177 L211.316,172.768 L240.609,175.515 L240.609,29.815 L272.588,26.145 L272.588,197.561 C272.588,202.919 270.934,207.266 267.655,210.568 C264.404,213.648 260.593,214.857 256.241,214.222 L197.569,205.662" id="Fill-4" sketch:type="MSShapeGroup"></path>
            <path d="M326.444,224.465 L326.444,60.867 L289.7,63.168 L289.7,24.181 L411.949,10.151 L411.949,55.512 L366.989,58.328 L366.989,230.381 L326.444,224.465" id="Fill-5" sketch:type="MSShapeGroup"></path>
            <path d="M436.32,170.554 L432.339,7.811 L493.906,0.746 L489.396,174.148 L436.32,170.554 L436.32,170.554 Z M436.32,240.497 L436.32,193.867 L489.396,198.844 L489.396,248.241 L436.32,240.497 L436.32,240.497 Z" id="Fill-6" sketch:type="MSShapeGroup"></path>
        </g>
    </g>
</svg>